<?xml version="1.0" encoding="UTF-8"?><svg id="Capa_1" xmlns="http://www.w3.org/2000/svg" viewBox="0 0 2258.63 720.2"><defs><style>.cls-1{fill:#fff;}.cls-2{fill:#f6250c;}.cls-3{fill:#333;}</style></defs><g><path class="cls-2" d="M360.52,0h0C559.5,0,721.05,161.55,721.05,360.52v360.52H360.52C161.55,721.05,0,559.5,0,360.52H0C0,161.55,161.55,0,360.52,0Z"/><g><path class="cls-1" d="M439.33,591.98c-25.49-14.85-45.65-35.17-60.5-60.97-14.85-25.79-22.28-54.32-22.28-85.59s7.19-60.65,21.57-86.29c14.38-25.63,34.07-45.73,59.09-60.27,25.01-14.54,53.15-21.81,84.42-21.81,16.88,0,33.45,2.04,49.71,6.1,16.25,4.07,30.17,9.85,41.74,17.35l-12.66,72.69c-22.51-8.44-42.84-12.67-60.97-12.67-25.02,0-44.25,7.27-57.68,21.81-13.45,14.54-20.17,35.41-20.17,62.61s7.11,47.29,21.34,62.14c14.22,14.85,34,22.28,59.32,22.28,9.69,0,18.76-.94,27.2-2.81,8.44-1.88,18.76-5.31,30.95-10.32l13.13,74.1c-27.2,15.95-56.91,23.92-89.11,23.92s-59.64-7.43-85.12-22.27Z"/><path class="cls-1" d="M423.75,421l42.97-69.3h-63.01l-70.49-243.69H194.5L107.8,421.96h102.67l13.24-60.24h75.83l-34.05,65h68.41l-17.37,167.23,106.63-171.99h.87l-.28-.96Zm-190.47-115.4l31.03-137.35,29.66,137.35h-60.69Z"/></g></g><g><g><path class="cls-3" d="M949.53,8.98h93.49l61.2,211.59h-72.27l-7.99-40.6h-54.74l-8.92,40.6h-69.19L949.53,8.98Zm67.04,133.16l-19.99-92.57-20.91,92.57h40.9Z"/><path class="cls-3" d="M1287.72,167.37c-8.2,0-14.45-1.5-18.76-4.51-4.3-3.01-7.69-8.31-10.15-15.93-1.84-6.21-3.49-13.12-4.92-20.74,13.94-5.81,24.24-13.27,30.91-22.39,6.66-9.11,9.99-20.38,9.99-33.81,0-12.02-3.69-22.64-11.07-31.86-7.38-9.21-17.79-16.38-31.21-21.49-13.43-5.11-28.96-7.66-46.59-7.66h-93.18V220.6h67.38l-.03-83.28h14.46l7.69,30.96c8.61,34.86,32.19,52.29,70.73,52.29,9.22,0,18.65-1.8,28.29-5.41v-48.99c-6.15,.8-10.66,1.2-13.53,1.2Zm-63.81-77.09c-6.26,3.3-16.97,4.96-32.14,4.96h-11.69V53.76h21.22c11.07,0,19.17,1.56,24.3,4.66,5.12,3.11,7.69,8.07,7.69,14.88,0,8.02-3.13,13.67-9.38,16.98Z"/><path class="cls-3" d="M1320.93,8.98h63.97l52.9,102.72,51.67-102.72h63.97V220.57h-63.97V107.7l-39.06,73.81h-26.14l-39.37-73.81v112.87h-63.97V8.98Z"/><path class="cls-3" d="M1621.24,8.98h93.49l61.2,211.59h-72.27l-7.99-40.6h-54.74l-8.92,40.6h-69.19l58.43-211.59Zm67.04,133.16l-19.99-92.57-20.91,92.57h40.9Z"/><path class="cls-3" d="M1780.17,208.59l15.38-47.67c21.12,7.59,39.98,11.38,56.59,11.38,9.02,0,15.63-1.08,19.84-3.23,4.2-2.15,6.3-5.38,6.3-9.69,0-2.87-1.13-5.38-3.38-7.53-2.26-2.15-6.77-4.56-13.53-7.23-6.77-2.66-16.92-5.95-30.45-9.84-16.61-4.92-29.52-12.96-38.75-24.14-9.23-11.17-13.84-24.04-13.84-38.6,0-22.55,7.43-39.62,22.3-51.2,14.86-11.58,34.9-17.38,60.12-17.38,13.12,0,26.03,1.38,38.75,4.15,12.71,2.77,23.99,6.82,33.83,12.15l-16.61,46.44c-11.48-3.89-21.48-6.71-29.99-8.46-8.51-1.74-16.76-2.62-24.76-2.62-13.53,0-20.3,3.69-20.3,11.07,0,3.69,2.2,6.82,6.61,9.38,4.4,2.56,13.48,5.8,27.22,9.69,21.53,5.74,37.82,14.51,48.9,26.29,11.07,11.79,16.61,25.89,16.61,42.29,0,22.76-7.38,40.24-22.14,52.44-14.76,12.2-36.59,18.3-65.51,18.3s-53.31-5.33-73.19-15.99Z"/></g><g><path class="cls-3" d="M2032.69,203.69h3.94c-2.41,4.4-5.45,8.31-9.12,11.74-3.67,3.43-7.03,5.14-10.09,5.14-2.84,0-4.98-.86-6.43-2.57-1.45-1.72-2.17-4.26-2.17-7.64,0-1.55,.13-2.97,.4-4.26-7.61,9.65-14.66,14.47-21.14,14.47-3.64,0-6.75-1.47-9.32-4.42-2.57-2.95-3.86-7.21-3.86-12.78,0-7.77,2.14-16.12,6.43-25.04,4.29-8.92,9.59-15.84,15.92-20.74,6.32-4.9,11.82-7.36,16.48-7.36,2.41,0,4.46,.56,6.15,1.69,1.69,1.13,3.04,2.81,4.06,5.07l9.81-32.4c1.18-3.86,1.77-6.19,1.77-6.99,0-1.29-.36-2.2-1.09-2.73-.72-.53-2.51-.8-5.35-.8h-2.25l1.05-3.38c7.77,0,13.96-.97,18.57-2.89h2.01l-25.72,84.65c-3.16,10.45-4.74,16.61-4.74,18.49,0,1.34,.25,2.34,.76,3.01,.51,.67,1.24,1,2.21,1,1.61,0,3.39-.94,5.34-2.81s4.09-4.69,6.39-8.44Zm-48.55,3.38c0,3,.52,5.26,1.57,6.79,1.04,1.53,2.58,2.29,4.62,2.29,3.59,0,7.74-2.5,12.46-7.52,4.72-5.01,9.06-13.26,13.02-24.76,3.97-11.49,5.95-18.77,5.95-21.82,0-1.98-.67-3.78-2.01-5.39-1.34-1.61-3.11-2.41-5.3-2.41-3.49,0-7.14,2.05-10.97,6.15-3.83,4.1-8.01,11.2-12.54,21.3-4.53,10.1-6.79,18.56-6.79,25.36Z"/><path class="cls-3" d="M2076.86,197.82h3.86c-6.81,15.17-15.54,22.75-26.2,22.75-4.4,0-7.97-1.54-10.73-4.62-2.76-3.08-4.14-7.25-4.14-12.5,0-6.65,1.78-14.15,5.35-22.51,3.56-8.36,8.63-15.57,15.19-21.62,6.56-6.05,12.29-9.08,17.16-9.08,3,0,5.28,.95,6.83,2.85,1.55,1.9,2.33,4.27,2.33,7.11,0,5.79-2.89,11.35-8.68,16.68-5.79,5.33-14.47,10.46-26.05,15.39-1.5,4.66-2.25,9.08-2.25,13.26,0,3.43,.67,6,2.01,7.72,1.34,1.72,3.32,2.57,5.95,2.57,7.34,0,13.8-6,19.37-18.01Zm-23.87-9.65c6.91-3.11,13.13-7.4,18.65-12.86s8.28-10.42,8.28-14.87c0-2.04-.41-3.55-1.24-4.54-.83-.99-2.08-1.49-3.74-1.49-3.22,0-7.01,3.12-11.38,9.36-4.37,6.24-7.89,14.38-10.57,24.4Z"/><path class="cls-3" d="M2141.99,199.03h3.54c-5.47,14.36-12.49,21.54-21.06,21.54-2.95,0-5.3-.98-7.07-2.93-1.77-1.96-2.65-4.41-2.65-7.36s1.74-10.05,5.23-21.46l18.81-62.06c1.61-5.25,2.41-8.31,2.41-9.16,0-1.29-.36-2.2-1.09-2.73-.72-.53-2.53-.8-5.43-.8h-3.13l1.04-3.38c8.84-.16,15.35-1.13,19.53-2.89h2.01l-25.89,85.21c-.38,1.34-1.15,3.78-2.33,7.32-1.56,4.66-2.33,8.2-2.33,10.61,0,1.61,.31,2.81,.92,3.62,.62,.8,1.54,1.21,2.77,1.21,1.82,0,4.1-1.26,6.83-3.78,2.73-2.52,5.36-6.83,7.88-12.94Z"/><path class="cls-3" d="M2200,151.44h9.65l-14.31,47.11c-2.09,6.81-3.14,10.93-3.14,12.38,0,1.07,.24,1.89,.72,2.45,.48,.56,1.21,.84,2.17,.84,3.7,0,7.96-4.23,12.78-12.7h3.38c-2.09,4.82-5.08,9.2-8.96,13.14-3.89,3.94-7.46,5.91-10.73,5.91-2.52,0-4.45-.94-5.79-2.81-1.34-1.88-2.01-4.18-2.01-6.91,0-2.2,.54-5.07,1.61-8.6-2.41,4.13-5.91,8.21-10.49,12.26-4.58,4.05-8.88,6.07-12.9,6.07-3.75,0-6.98-1.59-9.69-4.78-2.71-3.19-4.06-7.49-4.06-12.9,0-7.29,2.09-15.1,6.27-23.43,4.18-8.33,9.63-15.29,16.36-20.86,6.73-5.57,12.47-8.36,17.24-8.36,2.79,0,5,.67,6.63,2.01,1.63,1.34,2.72,3.35,3.26,6.03l2.01-6.83Zm-42.04,53.86c0,3.54,.53,6.2,1.61,8,1.07,1.8,2.68,2.69,4.82,2.69,3.54,0,7.78-2.6,12.74-7.8,4.96-5.2,9.26-13.16,12.9-23.87,3.64-10.72,5.47-18.01,5.47-21.87,0-2.25-.58-4.17-1.73-5.75-1.15-1.58-2.8-2.37-4.94-2.37-6.54,0-13.32,6.46-20.34,19.37-7.02,12.92-10.53,23.45-10.53,31.59Z"/></g><g><g><polygon class="cls-3" points="1381.25 273.45 1429.84 217.9 1462.42 280.57 1391.69 289.39 1381.25 273.45"/><path class="cls-3" d="M952.6,546.67c-19.83-11.55-35.53-27.37-47.08-47.45-11.56-20.08-17.34-42.28-17.34-66.61s5.59-47.2,16.79-67.16c11.19-19.95,26.52-35.59,45.99-46.9,19.46-11.31,41.37-16.97,65.7-16.97,13.14,0,26.04,1.58,38.69,4.74,12.65,3.16,23.48,7.66,32.48,13.5l-9.85,56.58c-17.52-6.57-33.34-9.85-47.45-9.85-19.47,0-34.44,5.66-44.9,16.97-10.46,11.32-15.69,27.56-15.69,48.73s5.53,36.81,16.61,48.37c11.07,11.56,26.46,17.34,46.17,17.34,7.54,0,14.6-.73,21.17-2.19,6.57-1.46,14.6-4.14,24.09-8.03l10.22,57.67c-21.17,12.41-44.29,18.61-69.35,18.61s-46.42-5.78-66.25-17.34Z"/><path class="cls-3" d="M1217.18,495.03l-9.12-37.59h-17.16v95.26h-79.93v-251.12h110.59c20.93,0,39.36,3.1,55.3,9.31,15.93,6.2,28.29,14.91,37.05,26.1,8.76,11.19,13.14,24.09,13.14,38.69,0,16.31-3.96,30-11.86,41.06-7.91,11.07-20.14,20.14-36.68,27.19,1.7,9.25,3.65,17.64,5.84,25.19,2.92,9.25,6.94,15.69,12.04,19.34,5.11,3.65,12.53,5.48,22.26,5.48,3.41,0,8.76-.49,16.06-1.46v59.49c-11.44,4.38-22.63,6.57-33.58,6.57-45.75,0-73.73-21.17-83.95-63.51Zm-12.41-88.69c18.01,0,30.72-2.01,38.14-6.02,7.42-4.02,11.13-10.89,11.13-20.62,0-8.27-3.05-14.29-9.13-18.07-6.09-3.77-15.69-5.66-28.83-5.66h-25.19v50.37h13.87Z"/><rect class="cls-3" x="1357.04" y="301.58" width="84.31" height="251.12"/><path class="cls-3" d="M1511.22,357.06h-52.2v-55.48h189.43v55.48h-52.19v195.64h-85.04v-195.64Z"/><path class="cls-3" d="M1663.34,301.58h84.31v251.12h-84.31v-251.12Z"/><path class="cls-3" d="M1832.52,546.67c-19.83-11.55-35.53-27.37-47.08-47.45-11.56-20.08-17.34-42.28-17.34-66.61s5.59-47.2,16.79-67.16c11.19-19.95,26.52-35.59,45.99-46.9,19.46-11.31,41.37-16.97,65.7-16.97,13.14,0,26.04,1.58,38.7,4.74,12.65,3.16,23.47,7.66,32.48,13.5l-9.85,56.58c-17.52-6.57-33.34-9.85-47.45-9.85-19.47,0-34.43,5.66-44.89,16.97-10.46,11.32-15.69,27.56-15.69,48.73s5.53,36.81,16.61,48.37c11.07,11.56,26.46,17.34,46.18,17.34,7.53,0,14.59-.73,21.16-2.19,6.57-1.46,14.6-4.14,24.09-8.03l10.22,57.67c-21.17,12.41-44.29,18.61-69.35,18.61s-46.42-5.78-66.25-17.34Z"/><path class="cls-3" d="M2224.26,551.93l34.37-55.43h-50.4l-56.38-194.92h-110.96l-69.35,251.12h82.12l10.59-48.18h60.65l-27.23,51.99h54.72l-13.9,133.76,85.29-137.57h.7l-.22-.77Zm-152.35-92.31l24.82-109.86,23.73,109.86h-48.55Z"/></g><g><path class="cls-3" d="M893.24,632.6h5.18v88.45h-5.18v-88.45Z"/><path class="cls-3" d="M967.39,698.98c-4.86,0-8.92-.89-12.16-2.68-3.24-1.78-5.69-4.47-7.34-8.07-1.65-3.6-2.61-8.19-2.87-13.77l13.81-2.33c.13,3.24,.47,5.95,1.02,8.12,.55,2.17,1.39,3.79,2.53,4.86,1.13,1.07,2.54,1.61,4.23,1.61,2.08,0,3.49-.65,4.23-1.95,.74-1.3,1.12-2.79,1.12-4.47,0-3.31-.79-6.08-2.38-8.32-1.59-2.24-3.68-4.49-6.27-6.76l-8.17-7.1c-2.92-2.46-5.3-5.25-7.15-8.37-1.85-3.11-2.77-6.94-2.77-11.48,0-6.48,1.9-11.46,5.69-14.93,3.79-3.47,9-5.2,15.61-5.2,3.96,0,7.2,.65,9.73,1.95,2.53,1.3,4.49,3.03,5.89,5.2,1.39,2.17,2.37,4.54,2.92,7.1,.55,2.56,.89,5.11,1.02,7.64l-13.72,2.04c-.13-2.4-.34-4.51-.63-6.32s-.88-3.24-1.75-4.28c-.88-1.04-2.19-1.56-3.94-1.56-1.88,0-3.28,.7-4.18,2.09-.91,1.4-1.36,2.94-1.36,4.62,0,2.79,.63,5.08,1.9,6.86,1.26,1.79,3,3.65,5.2,5.59l7.98,7c3.31,2.86,6.14,6.11,8.51,9.78,2.37,3.66,3.55,8.19,3.55,13.57,0,3.7-.85,7.04-2.53,10.02-1.69,2.98-4.04,5.32-7.05,7-3.02,1.69-6.57,2.53-10.65,2.53Z"/><path class="cls-3" d="M1003.85,698.89c-2.27,0-4.17-.58-5.69-1.75-1.53-1.17-2.64-2.72-3.36-4.67-.71-1.95-1.07-4.09-1.07-6.42v-44.36h14.69v42.22c0,1.56,.26,2.74,.78,3.55,.52,.81,1.46,1.22,2.82,1.22,.78,0,1.61-.21,2.48-.63,.88-.42,1.77-.92,2.68-1.51v-44.85h14.69v56.23h-14.69v-5.25c-1.95,1.88-4.04,3.39-6.27,4.52-2.24,1.13-4.59,1.7-7.05,1.7Z"/><path class="cls-3" d="M1039.74,716.4v-74.72h14.69v4.18c1.75-1.62,3.65-2.88,5.69-3.79,2.04-.91,4.1-1.36,6.18-1.36,2.27,0,4.18,.5,5.74,1.51,1.56,1.01,2.82,2.35,3.79,4.04,.97,1.69,1.65,3.57,2.04,5.64,.39,2.08,.58,4.18,.58,6.32v21.99c0,3.63-.45,6.84-1.36,9.63-.91,2.79-2.29,5-4.13,6.62-1.85,1.62-4.23,2.43-7.15,2.43-2.01,0-3.97-.49-5.89-1.46-1.91-.97-3.75-2.24-5.5-3.79v22.76h-14.69Zm19.55-27.34c1.23,0,2.16-.37,2.77-1.12,.61-.74,1.05-1.73,1.31-2.97,.26-1.23,.39-2.59,.39-4.09v-23.54c0-1.36-.13-2.59-.39-3.7-.26-1.1-.72-1.99-1.36-2.68-.65-.68-1.52-1.02-2.63-1.02-.91,0-1.78,.21-2.63,.63-.84,.42-1.62,.96-2.33,1.61v35.22c.78,.52,1.56,.92,2.33,1.22,.78,.29,1.62,.44,2.53,.44Z"/><path class="cls-3" d="M1086.01,697.91v-78.8h14.69v78.8h-14.69Z"/><path class="cls-3" d="M1126.75,698.89c-4.15,0-7.62-.76-10.41-2.29-2.79-1.52-4.9-3.76-6.32-6.71-1.43-2.95-2.14-6.5-2.14-10.65v-18.87c0-4.28,.71-7.86,2.14-10.75,1.43-2.89,3.57-5.09,6.42-6.62,2.85-1.52,6.29-2.29,10.31-2.29,4.28,0,7.75,.78,10.41,2.33,2.66,1.56,4.62,3.83,5.89,6.81,1.26,2.98,1.9,6.62,1.9,10.9v9.83h-22.57v10.9c0,1.62,.18,2.95,.54,3.99,.36,1.04,.86,1.77,1.51,2.19,.65,.42,1.46,.63,2.43,.63,.91,0,1.7-.21,2.38-.63,.68-.42,1.18-1.09,1.51-1.99,.32-.91,.49-2.11,.49-3.6v-5.35h13.62v4.67c0,5.71-1.56,10.05-4.67,13.04-3.11,2.98-7.59,4.47-13.42,4.47Zm-4.38-35.31h8.85v-5.55c0-1.62-.16-2.93-.49-3.94-.33-1-.83-1.72-1.51-2.14-.68-.42-1.54-.63-2.58-.63-.97,0-1.77,.23-2.38,.68s-1.09,1.25-1.41,2.38c-.33,1.14-.49,2.74-.49,4.82v4.38Z"/><path class="cls-3" d="M1151.7,697.91v-56.23h14.3v4.67c2.01-2.07,4.13-3.55,6.37-4.43,2.24-.88,4.52-1.31,6.86-1.31s4.23,.57,5.89,1.7c1.65,1.14,2.87,2.84,3.65,5.11,2.2-2.46,4.51-4.21,6.91-5.25,2.4-1.04,4.86-1.56,7.39-1.56,2.08,0,3.92,.52,5.55,1.56,1.62,1.04,2.89,2.56,3.79,4.57,.91,2.01,1.36,4.47,1.36,7.39v43.78h-14.3v-42.32c0-1.82-.31-3.1-.92-3.84-.62-.75-1.54-1.12-2.77-1.12-.78,0-1.72,.23-2.82,.68-1.1,.46-2.14,1.1-3.11,1.95v44.65h-14.11v-42.32c0-1.82-.33-3.1-.97-3.84-.65-.75-1.59-1.12-2.82-1.12-.84,0-1.8,.23-2.87,.68-1.07,.46-2.09,1.1-3.06,1.95v44.65h-14.3Z"/><path class="cls-3" d="M1239.33,698.89c-4.15,0-7.62-.76-10.41-2.29-2.79-1.52-4.9-3.76-6.32-6.71-1.43-2.95-2.14-6.5-2.14-10.65v-18.87c0-4.28,.71-7.86,2.14-10.75,1.43-2.89,3.57-5.09,6.42-6.62,2.85-1.52,6.29-2.29,10.31-2.29,4.28,0,7.75,.78,10.41,2.33,2.66,1.56,4.62,3.83,5.89,6.81,1.26,2.98,1.9,6.62,1.9,10.9v9.83h-22.57v10.9c0,1.62,.18,2.95,.54,3.99,.36,1.04,.86,1.77,1.51,2.19,.65,.42,1.46,.63,2.43,.63,.91,0,1.7-.21,2.38-.63,.68-.42,1.18-1.09,1.51-1.99,.32-.91,.49-2.11,.49-3.6v-5.35h13.62v4.67c0,5.71-1.56,10.05-4.67,13.04-3.11,2.98-7.59,4.47-13.42,4.47Zm-4.38-35.31h8.85v-5.55c0-1.62-.16-2.93-.49-3.94-.33-1-.83-1.72-1.51-2.14-.68-.42-1.54-.63-2.58-.63-.97,0-1.77,.23-2.38,.68s-1.09,1.25-1.41,2.38c-.33,1.14-.49,2.74-.49,4.82v4.38Z"/><path class="cls-3" d="M1264.29,697.91v-56.23h14.69v5.64c2.01-2.01,4.13-3.61,6.37-4.82,2.24-1.2,4.62-1.8,7.15-1.8,2.33,0,4.23,.58,5.69,1.75,1.46,1.17,2.54,2.71,3.26,4.62,.71,1.91,1.07,4.07,1.07,6.47v44.36h-14.59v-41.93c0-1.56-.24-2.72-.73-3.5s-1.41-1.17-2.77-1.17c-.78,0-1.64,.21-2.58,.63-.94,.42-1.9,.99-2.87,1.7v44.26h-14.69Z"/><path class="cls-3" d="M1328.26,698.5c-3.89,0-6.94-.6-9.14-1.8-2.21-1.2-3.73-2.93-4.57-5.2-.84-2.27-1.26-5.02-1.26-8.27v-31.91h-5.55v-9.63h5.55v-17.02h14.88v17.02h8.17v9.63h-8.17v30.55c0,1.75,.44,3,1.31,3.75,.88,.75,2.09,1.12,3.65,1.12,.78,0,1.52-.05,2.24-.15,.71-.1,1.36-.18,1.95-.24v11.48c-.91,.13-2.21,.27-3.89,.44-1.69,.16-3.4,.24-5.16,.24Z"/><path class="cls-3" d="M1361.5,698.89c-4.02,0-7.46-.73-10.31-2.19-2.85-1.46-5.01-3.58-6.47-6.37-1.46-2.79-2.19-6.26-2.19-10.41v-20.23c0-4.15,.73-7.62,2.19-10.41,1.46-2.79,3.62-4.91,6.47-6.37,2.85-1.46,6.29-2.19,10.31-2.19s7.46,.73,10.31,2.19c2.85,1.46,5.02,3.58,6.52,6.37,1.49,2.79,2.24,6.26,2.24,10.41v20.23c0,4.15-.75,7.62-2.24,10.41-1.49,2.79-3.66,4.91-6.52,6.37-2.86,1.46-6.29,2.19-10.31,2.19Zm.1-9.92c1.23,0,2.17-.34,2.82-1.02,.65-.68,1.07-1.62,1.26-2.82,.19-1.2,.29-2.58,.29-4.13v-22.28c0-1.62-.1-3.02-.29-4.18-.19-1.17-.62-2.11-1.26-2.82-.65-.71-1.59-1.07-2.82-1.07s-2.17,.36-2.82,1.07c-.65,.71-1.09,1.65-1.31,2.82-.23,1.17-.34,2.56-.34,4.18v22.28c0,1.56,.11,2.94,.34,4.13,.23,1.2,.66,2.14,1.31,2.82,.65,.68,1.59,1.02,2.82,1.02Z"/><path class="cls-3" d="M1426.19,698.89c-4.28,0-7.57-1.52-9.87-4.57-2.3-3.05-3.45-7.72-3.45-14.01v-20.62c0-3.63,.47-6.87,1.41-9.73,.94-2.85,2.38-5.11,4.33-6.76,1.95-1.65,4.44-2.48,7.49-2.48,2.01,0,3.92,.42,5.74,1.26,1.81,.84,3.47,1.91,4.96,3.21v-26.07h14.69v78.8h-14.69v-4.18c-1.62,1.56-3.32,2.81-5.11,3.75s-3.62,1.41-5.5,1.41Zm5.93-9.73c.65,0,1.38-.15,2.19-.44s1.64-.7,2.48-1.22v-35.8c-.71-.39-1.46-.73-2.24-1.02s-1.56-.44-2.33-.44c-1.69,0-2.87,.71-3.55,2.14-.68,1.43-1.02,3.15-1.02,5.16v23.74c0,1.49,.13,2.84,.39,4.04,.26,1.2,.71,2.14,1.36,2.82,.65,.68,1.56,1.02,2.72,1.02Z"/><path class="cls-3" d="M1477.27,698.89c-4.15,0-7.62-.76-10.41-2.29-2.79-1.52-4.9-3.76-6.32-6.71-1.43-2.95-2.14-6.5-2.14-10.65v-18.87c0-4.28,.71-7.86,2.14-10.75,1.43-2.89,3.57-5.09,6.42-6.62,2.85-1.52,6.29-2.29,10.31-2.29,4.28,0,7.75,.78,10.41,2.33,2.66,1.56,4.62,3.83,5.89,6.81,1.26,2.98,1.9,6.62,1.9,10.9v9.83h-22.57v10.9c0,1.62,.18,2.95,.54,3.99,.36,1.04,.86,1.77,1.51,2.19,.65,.42,1.46,.63,2.43,.63,.91,0,1.7-.21,2.38-.63,.68-.42,1.18-1.09,1.51-1.99,.32-.91,.49-2.11,.49-3.6v-5.35h13.62v4.67c0,5.71-1.56,10.05-4.67,13.04-3.11,2.98-7.59,4.47-13.42,4.47Zm-4.38-35.31h8.85v-5.55c0-1.62-.16-2.93-.49-3.94-.33-1-.83-1.72-1.51-2.14-.68-.42-1.54-.63-2.58-.63-.97,0-1.77,.23-2.38,.68s-1.09,1.25-1.41,2.38c-.33,1.14-.49,2.74-.49,4.82v4.38Z"/><path class="cls-3" d="M1529.32,697.91v-78.8h14.69v78.8h-14.69Z"/><path class="cls-3" d="M1563.18,698.89c-2.66,0-4.95-.68-6.86-2.04-1.91-1.36-3.36-3.08-4.33-5.16-.97-2.07-1.46-4.21-1.46-6.42,0-3.5,.68-6.45,2.04-8.85,1.36-2.4,3.14-4.41,5.35-6.03,2.2-1.62,4.67-3.02,7.39-4.18,2.72-1.17,5.45-2.24,8.17-3.21v-5.25c0-1.23-.1-2.3-.29-3.21-.19-.91-.57-1.61-1.12-2.09-.55-.49-1.35-.73-2.38-.73s-1.83,.21-2.38,.63c-.55,.42-.94,1.04-1.17,1.85-.23,.81-.37,1.7-.44,2.68l-.29,3.89-13.91-.58c.32-6.62,2.06-11.51,5.2-14.69,3.15-3.18,7.9-4.77,14.25-4.77,5.71,0,9.92,1.57,12.65,4.72s4.09,7.28,4.09,12.4v26.17c0,2.21,.05,4.17,.15,5.89,.1,1.72,.23,3.24,.39,4.57,.16,1.33,.31,2.48,.44,3.45h-13.23c-.19-1.43-.42-2.98-.68-4.67-.26-1.69-.45-2.82-.58-3.4-.65,2.33-1.88,4.43-3.7,6.27-1.82,1.85-4.25,2.77-7.3,2.77Zm5.35-10.41c.71,0,1.39-.16,2.04-.49,.65-.32,1.22-.74,1.7-1.26,.49-.52,.89-1,1.22-1.46v-15.47c-1.36,.84-2.63,1.67-3.79,2.48-1.17,.81-2.17,1.7-3.02,2.68-.84,.97-1.49,2.04-1.95,3.21-.46,1.17-.68,2.5-.68,3.99,0,1.95,.39,3.49,1.17,4.62,.78,1.14,1.88,1.7,3.31,1.7Z"/><path class="cls-3" d="M1617.66,699.96v-11.28c1.88,0,3.47-.11,4.77-.34,1.3-.23,2.3-.65,3.02-1.26,.71-.62,1.23-1.51,1.56-2.68,.32-1.17,.49-2.69,.49-4.57v-60.71h16.05v61.39c0,4.35-.52,7.96-1.56,10.85-1.04,2.89-2.87,5.04-5.5,6.47s-6.31,2.14-11.04,2.14h-7.78Z"/><path class="cls-3" d="M1661.8,698.89c-2.27,0-4.17-.58-5.69-1.75-1.53-1.17-2.64-2.72-3.36-4.67-.71-1.95-1.07-4.09-1.07-6.42v-44.36h14.69v42.22c0,1.56,.26,2.74,.78,3.55,.52,.81,1.46,1.22,2.82,1.22,.78,0,1.61-.21,2.48-.63,.88-.42,1.77-.92,2.68-1.51v-44.85h14.69v56.23h-14.69v-5.25c-1.95,1.88-4.04,3.39-6.27,4.52-2.24,1.13-4.59,1.7-7.05,1.7Z"/><path class="cls-3" d="M1706.41,697.91l-11.28-56.23h14.2l5.16,37.84,4.86-37.84h14.11l-11.38,56.23h-15.66Z"/><path class="cls-3" d="M1755.48,698.89c-4.15,0-7.62-.76-10.41-2.29-2.79-1.52-4.9-3.76-6.32-6.71-1.43-2.95-2.14-6.5-2.14-10.65v-18.87c0-4.28,.71-7.86,2.14-10.75,1.43-2.89,3.57-5.09,6.42-6.62,2.85-1.52,6.29-2.29,10.31-2.29,4.28,0,7.75,.78,10.41,2.33,2.66,1.56,4.62,3.83,5.89,6.81,1.26,2.98,1.9,6.62,1.9,10.9v9.83h-22.57v10.9c0,1.62,.18,2.95,.54,3.99,.36,1.04,.86,1.77,1.51,2.19,.65,.42,1.46,.63,2.43,.63,.91,0,1.7-.21,2.38-.63,.68-.42,1.18-1.09,1.51-1.99,.32-.91,.49-2.11,.49-3.6v-5.35h13.62v4.67c0,5.71-1.56,10.05-4.67,13.04-3.11,2.98-7.59,4.47-13.42,4.47Zm-4.38-35.31h8.85v-5.55c0-1.62-.16-2.93-.49-3.94-.33-1-.83-1.72-1.51-2.14-.68-.42-1.54-.63-2.58-.63-.97,0-1.77,.23-2.38,.68s-1.09,1.25-1.41,2.38c-.33,1.14-.49,2.74-.49,4.82v4.38Z"/><path class="cls-3" d="M1780.43,697.91v-56.23h14.69v5.64c2.01-2.01,4.13-3.61,6.37-4.82,2.24-1.2,4.62-1.8,7.15-1.8,2.33,0,4.23,.58,5.69,1.75,1.46,1.17,2.54,2.71,3.26,4.62,.71,1.91,1.07,4.07,1.07,6.47v44.36h-14.59v-41.93c0-1.56-.24-2.72-.73-3.5s-1.41-1.17-2.77-1.17c-.78,0-1.64,.21-2.58,.63-.94,.42-1.9,.99-2.87,1.7v44.26h-14.69Z"/><path class="cls-3" d="M1844.4,698.5c-3.89,0-6.94-.6-9.14-1.8-2.21-1.2-3.73-2.93-4.57-5.2-.84-2.27-1.26-5.02-1.26-8.27v-31.91h-5.55v-9.63h5.55v-17.02h14.88v17.02h8.17v9.63h-8.17v30.55c0,1.75,.44,3,1.31,3.75,.88,.75,2.09,1.12,3.65,1.12,.78,0,1.52-.05,2.24-.15,.71-.1,1.36-.18,1.95-.24v11.48c-.91,.13-2.21,.27-3.89,.44-1.69,.16-3.4,.24-5.16,.24Z"/><path class="cls-3" d="M1869.27,698.89c-2.27,0-4.17-.58-5.69-1.75-1.53-1.17-2.64-2.72-3.36-4.67-.71-1.95-1.07-4.09-1.07-6.42v-44.36h14.69v42.22c0,1.56,.26,2.74,.78,3.55,.52,.81,1.46,1.22,2.82,1.22,.78,0,1.61-.21,2.48-.63,.88-.42,1.77-.92,2.68-1.51v-44.85h14.69v56.23h-14.69v-5.25c-1.95,1.88-4.04,3.39-6.27,4.52-2.24,1.13-4.59,1.7-7.05,1.7Z"/><path class="cls-3" d="M1917.85,698.89c-4.28,0-7.57-1.52-9.87-4.57-2.3-3.05-3.45-7.72-3.45-14.01v-20.62c0-3.63,.47-6.87,1.41-9.73,.94-2.85,2.38-5.11,4.33-6.76,1.95-1.65,4.44-2.48,7.49-2.48,2.01,0,3.92,.42,5.74,1.26,1.81,.84,3.47,1.91,4.96,3.21v-26.07h14.69v78.8h-14.69v-4.18c-1.62,1.56-3.32,2.81-5.11,3.75s-3.62,1.41-5.5,1.41Zm5.93-9.73c.65,0,1.38-.15,2.19-.44s1.64-.7,2.48-1.22v-35.8c-.71-.39-1.46-.73-2.24-1.02s-1.56-.44-2.33-.44c-1.69,0-2.87,.71-3.55,2.14-.68,1.43-1.02,3.15-1.02,5.16v23.74c0,1.49,.13,2.84,.39,4.04,.26,1.2,.71,2.14,1.36,2.82,.65,.68,1.56,1.02,2.72,1.02Z"/></g></g></g></svg>