<?xml version="1.0" encoding="utf-8"?>
<!-- Generator: Adobe Illustrator 21.0.2, SVG Export Plug-In . SVG Version: 6.00 Build 0)  -->
<svg version="1.1" id="Capa_1" xmlns="http://www.w3.org/2000/svg" xmlns:xlink="http://www.w3.org/1999/xlink" x="0px" y="0px"
	 viewBox="0 0 237.9 53.4" style="enable-background:new 0 0 237.9 53.4;" xml:space="preserve">
<style type="text/css">
	.st0{fill:#333333;}
	.st1{fill:#DE2B00;}
</style>
<g>
	<path class="st0" d="M69.5,20v2.7c0,0.6-0.2,1-1,1h-9.6c-0.8,0-1-0.4-1-1V20c0-0.6,0.2-1,1-1H61V6h-2.1c-0.8,0-1-0.4-1-1V2.3
		c0-0.6,0.2-1,1-1h9.5c0.8,0,1,0.4,1,1v2.8c0,0.6-0.2,1-1,1h-2v13h2.1C69.3,19,69.5,19.4,69.5,20z"/>
	<path class="st0" d="M82.5,1.3h-7.6c-0.8,0-1,0.4-1,1v20.4c0,0.6,0.2,1,1,1h7.6c4,0,9.1-2.3,9.1-7.6V9C91.6,3.7,86.5,1.3,82.5,1.3z
		 M86.3,15.6c0,2.2-1.6,3.4-3.8,3.4h-3.3V6.1h3.3c2.2,0,3.8,1.3,3.8,3.4V15.6z"/>
	<path class="st0" d="M113.2,19.9v2.8c0,0.6-0.2,1-1,1H97c-0.8,0-1-0.4-1-1V2.3c0-0.6,0.2-1,1-1h14.7c0.8,0,1,0.4,1,1v2.8
		c0,0.6-0.2,1-1,1h-10.3v3.7h9.1c0.8,0,1,0.4,1,1v2.7c0,0.6-0.2,1-1,1h-9.1V19h10.8C113,18.9,113.2,19.3,113.2,19.9z"/>
	<path class="st0" d="M136.5,22.8L129,2.4c-0.3-0.7-0.6-1.1-1.4-1.1h-3.3c-0.7,0-1.1,0.3-1.4,1.1l-7.5,20.4c-0.2,0.4-0.2,1,0.6,1
		h3.6c0.7,0,1-0.2,1.3-1l1-2.7h8.3l1,2.7c0.3,0.8,0.5,1,1.3,1h3.6C136.7,23.7,136.7,23.2,136.5,22.8z M123.4,15.2l2.5-7.5l2.5,7.5
		H123.4z"/>
	<path class="st0" d="M156.1,17.1c0,4.8-3.8,7.1-9,7.1c-4.2,0-9.1-2.4-9.1-7.2c0-0.8,0.2-1,1-1h3.3c0.8,0,1.2,0.1,1.2,1
		c0,0.4,0.2,0.9,0.6,1.4c0.7,0.8,2.1,1.1,3.3,1.1c1.8,0,3.3-0.4,3.3-2.3s-3-1.9-5.9-2.9c-3.4-1.1-6.6-2.4-6.6-6.8s4-6.6,8.3-6.8
		c4.3,0,9,2,9,6.5c0,0.8-0.2,1-1,1h-3.3c-0.6,0-0.7-0.5-0.9-0.9c-0.1-0.3-0.3-0.6-0.7-1c-0.6-0.6-1.9-0.9-2.9-0.9c-1.1,0-3,0.4-3,2
		c0,2.1,5,2.8,6.4,3.4C152.5,11.5,156.1,12.5,156.1,17.1z"/>
	<path class="st0" d="M69.3,48v2.7c0,0.6-0.2,1-1,1h-9.6c-0.8,0-1-0.4-1-1V48c0-0.6,0.2-1,1-1h2.1V34h-2.1c-0.8,0-1-0.4-1-1v-2.8
		c0-0.6,0.2-1,1-1h9.5c0.8,0,1,0.4,1,1V33c0,0.6-0.2,1-1,1h-2v13h2.1C69.1,47,69.3,47.4,69.3,48z"/>
	<path class="st0" d="M89.2,47.9v2.8c0,0.6-0.2,1-1,1H73.4c-0.9,0-1-0.2-1-1V48c0-0.8,0.4-1.3,0.4-1.3L82,34h-8.3c-0.8,0-1-0.4-1-1
		v-2.8c0-0.6,0.2-1,1-1h13.7c0.8,0,1,0.4,1,1v2.7c0,0.4-0.1,0.9-0.4,1.3l-9.1,12.6h9.5C89,46.9,89.2,47.3,89.2,47.9z"/>
	<path class="st0" d="M110.6,50.1l-1.3-1.5c0.9-1.1,1.2-2.3,1.2-4.1v-8c0-5.4-5.1-7.7-9.1-7.7s-9.1,2.3-9.1,7.7v8
		c0,5.4,5,7.7,9.1,7.7c1.5,0,2.9-0.1,4.3-0.7l1.6,1.7c0.4,0.4,1,0.4,1.5-0.2l1.6-1.3C111.1,51,111.1,50.5,110.6,50.1z M105.2,44
		c0,2.2-1.6,3.4-3.8,3.4c-2.2,0-3.8-1.3-3.8-3.4v-7.1c0-2.2,1.6-3.4,3.8-3.4c2.2,0,3.8,1.3,3.8,3.4V44z"/>
	<path class="st0" d="M132.7,30.3v14.6c0,5.3-5,7.3-9,7.3s-9-2-9-7.3V30.3c0-0.8,0.4-1,1-1h3.4c0.6,0,1,0.2,1,1v13.8
		c0,2.1,1.4,3.4,3.6,3.4s3.7-1.2,3.7-3.4V30.3c0-0.8,0.4-1,1-1h3.4C132.3,29.3,132.7,29.5,132.7,30.3z"/>
	<path class="st0" d="M148.1,48v2.7c0,0.6-0.2,1-1,1h-9.6c-0.8,0-1-0.4-1-1V48c0-0.6,0.2-1,1-1h2.1V34h-2.1c-0.8,0-1-0.4-1-1v-2.8
		c0-0.6,0.2-1,1-1h9.5c0.8,0,1,0.4,1,1V33c0,0.6-0.2,1-1,1h-2v13h2.1C147.9,47,148.1,47.4,148.1,48z"/>
	<path class="st0" d="M169.7,47.9v2.8c0,0.6-0.2,1-1,1h-15.2c-0.8,0-1-0.4-1-1V30.3c0-0.6,0.2-1,1-1h14.7c0.8,0,1,0.4,1,1v2.8
		c0,0.6-0.2,1-1,1h-10.3v3.7h9.1c0.8,0,1,0.4,1,1v2.7c0,0.6-0.2,1-1,1h-9.1V47h10.8C169.5,46.9,169.7,47.3,169.7,47.9z"/>
	<path class="st0" d="M191.6,51.7h-4c-0.8,0-1.2-0.3-1.7-1l-3.7-5.5c-0.3-0.4-0.4-0.8-0.4-1.7v-2.7c0-0.6,0.2-1,1-1h0.7
		c1.7,0,3.2-1.2,3.2-2.8c0-1.8-1.4-2.9-3.1-2.9h-4.5v16.6c0,0.8-0.4,1-1,1h-3.4c-0.6,0-1-0.2-1-1V30.3c0-0.6,0.2-1,1-1h8.6
		c3.7,0,5.3,0.7,6.8,2.2c1.3,1.2,2,3.2,2,5.3c0,3.6-2.6,6.1-4.7,6.8l4.8,7C192.5,51,192.3,51.7,191.6,51.7z"/>
	<path class="st0" d="M205.1,29.3h-7.6c-0.8,0-1,0.4-1,1v20.4c0,0.6,0.2,1,1,1h7.6c4,0,9.1-2.3,9.1-7.6V37
		C214.2,31.6,209.1,29.3,205.1,29.3z M208.9,43.5c0,2.2-1.6,3.4-3.8,3.4h-3.3V34h3.3c2.2,0,3.8,1.3,3.8,3.4V43.5z"/>
	<path class="st0" d="M237.8,50.7l-7.5-20.4c-0.3-0.7-0.6-1.1-1.4-1.1h-3.3c-0.7,0-1.1,0.3-1.4,1.1l-7.5,20.4c-0.2,0.4-0.2,1,0.6,1
		h3.6c0.7,0,1-0.2,1.3-1l1-2.7h8.3l1,2.7c0.3,0.8,0.5,1,1.3,1h3.6C238,51.7,238,51.1,237.8,50.7z M224.7,43.2l2.5-7.5l2.5,7.5H224.7
		z"/>
	<path class="st0" d="M167.5,15.3h-2.7c-0.3,0-0.3,0.1-0.3,0.3v7.2c0,0.2,0.1,0.3,0.3,0.3h2.7c1.4,0,3.2-0.8,3.2-2.7V18
		C170.7,16.1,168.9,15.3,167.5,15.3z M168.9,20.3c0,0.8-0.6,1.2-1.3,1.2h-1.2v-4.6h1.2c0.8,0,1.3,0.4,1.3,1.2V20.3z"/>
	<path class="st0" d="M178,21.5h-3.8v-1.6h3.2c0.3,0,0.3-0.1,0.3-0.3v-0.9c0-0.2-0.1-0.3-0.3-0.3h-3.2V17h3.6c0.3,0,0.3-0.1,0.3-0.3
		v-1c0-0.2-0.1-0.3-0.3-0.3h-5.2c-0.3,0-0.3,0.1-0.3,0.3v7.2c0,0.2,0.1,0.3,0.3,0.3h5.4c0.3,0,0.3-0.1,0.3-0.3v-1
		C178.3,21.6,178.3,21.5,178,21.5z"/>
</g>
<g>
	<path class="st1" d="M26.3,0C11.8,0,0,11.8,0,26.3c0,14.6,11.8,26.3,26.3,26.3h26.3V26.3C52.7,11.8,40.9,0,26.3,0z M37.6,11.4
		c2.6,0,2.2-0.3,2.2,2.2v10.9c0,2.3,0.2,2.2-1.9,2.2c-2,0-2,0.1-2-0.5c-1,0.6-3.9,1.1-5.6,0.1c-1.1-0.6-1.9-1.7-2.2-2.8
		c-0.4-1.3-0.2-2.4,0.5-3.4c0.9-1.3,1.7-1.7,2.6-2c1.6-0.6,4.3-1,4.3-1v-3.4C35.5,11,35,11.4,37.6,11.4z M14.6,38.7
		c-0.8,0-1-0.4-1-1V35c0-0.6,0.2-1,1-1h5.1V16h-5.3c-0.8,0-1-0.4-1-1v-2.7c0-0.6,0.2-1,1-1h15.8c0.8,0,1,0.4,1,1V15c0,0.6-0.2,1-1,1
		H25v18h4.8c0.8,0,1,0.4,1,1v2.7c0,0.6-0.2,1-1,1H14.6z M44.3,47.2c0,0.6-0.2,1-1,1H28.6c-0.9,0-1-0.2-1-1v-2.6
		c0-0.8,0.4-1.3,0.4-1.3l8.8-10.8h-8.3c-0.8,0-1-0.4-1-1v-2.8c0-0.6,0.2-1,1-1h13.6c0.8,0,1,0.4,1,1v2.6c0,0.4-0.1,0.9-0.4,1.3
		L34,43.4h9.4c0.8,0,1,0.4,1,1v2.8H44.3z"/>
	<path class="st1" d="M32.7,21c-0.5,0.4-0.6,1.3-0.2,1.8c0.2,0.2,0.7,0.6,1,0.6c1.2,0,1.9-0.8,1.9-0.8v-2.3
		C35.5,20.4,33.6,20.3,32.7,21z"/>
</g>
</svg>
